<svg xmlns="http://www.w3.org/2000/svg" width="197" height="38" viewBox="0 0 197 38" fill="none">
  <path d="M37.8123 1.01393C36.4672 1.29187 36.2515 1.35504 35.6551 1.68351C35.3378 1.84775 34.9191 2.07515 34.7033 2.18885C34.5003 2.28992 30.8456 5.83997 26.5819 10.0596C22.3308 14.2919 18.765 17.7535 18.6635 17.7535C18.562 17.7535 17.1915 16.4901 15.6179 14.9362C13.0546 12.4221 12.6485 12.0683 11.7983 11.6514C11.278 11.3988 10.542 11.1082 10.1613 10.9945C9.23499 10.7418 6.7478 10.7418 5.82145 10.9945C3.67688 11.6135 1.83687 13.1043 0.897825 14.9993C-0.307701 17.4124 -0.295012 20.0149 0.910515 22.4279C1.43079 23.4765 1.59576 23.6534 7.29346 29.3511C10.504 32.5727 13.4861 35.4658 13.9048 35.769C15.4149 36.8429 16.6204 37.2092 18.7015 37.2092C20.5416 37.2092 21.6963 36.8681 23.2191 35.8953C23.7394 35.5669 28.2442 31.0946 40.9594 18.322C45.8703 13.3949 45.7561 13.5086 46.3525 12.2578C46.9997 10.8934 47.1139 10.2744 47.0378 8.49303C47.0124 7.57077 46.9109 6.62325 46.822 6.38321C46.5429 5.63783 45.7688 4.10917 45.6546 4.10917C45.6038 4.10917 45.5531 4.046 45.5531 3.9702C45.5531 3.65435 43.8273 2.21412 42.9517 1.78458C41.873 1.2666 41.4162 1.12763 40.3503 0.963394C39.3224 0.799156 38.8529 0.799156 37.8123 1.01393ZM46.6571 10.2617C46.619 10.3881 46.5936 10.3123 46.5936 10.1101C46.5936 9.89536 46.619 9.80692 46.6571 9.88272C46.6825 9.97116 46.6825 10.148 46.6571 10.2617Z" fill="url(#paint0_linear_107_7715)"/>
  <path d="M169.854 1.49455C169.094 2.25509 168.999 4.25151 169.664 5.1705C170.203 5.89935 172.928 6.0261 173.752 5.32894C174.481 4.75854 174.481 2.06496 173.784 1.3678C173.055 0.607255 170.647 0.702322 169.854 1.49455Z" fill="white"/>
  <path d="M152.647 4.53687C152.52 4.66363 152.425 6.08964 152.425 7.73748V10.6846H150.904C148.844 10.6846 148.242 11.1599 148.369 12.7444L148.464 14.0119L150.429 14.107L152.362 14.2021L152.489 22.98C152.584 31.3142 152.615 31.8212 153.281 33.0888C154.168 34.705 155.277 35.6239 156.988 36.0676C158.414 36.4479 161.266 36.2894 162.661 35.7507C163.453 35.4338 163.516 35.2754 163.516 33.786V32.1381L162.502 32.4233C161.932 32.5501 160.791 32.6769 159.967 32.6769C156.925 32.7085 156.481 31.2825 156.608 21.3004L156.703 14.3288L160.031 14.1704L163.358 14.0119L163.453 12.5542L163.548 11.0965L162.344 10.8747C161.678 10.7796 160.126 10.6846 158.858 10.6846H156.576L156.481 7.57903L156.386 4.50518L154.643 4.41011C153.661 4.34674 152.774 4.41011 152.647 4.53687Z" fill="white"/>
  <path d="M60.7483 10.843C58.8152 11.35 57.2308 12.0471 56.3435 12.8394C55.6463 13.4415 55.5512 15.6914 56.2167 15.9449C56.4702 16.04 57.4843 15.6914 58.53 15.1844C61.0018 13.9168 63.5369 13.4732 65.6601 13.8534C68.4487 14.3921 69.7163 16.1667 69.7163 19.4941V21.3638L65.6918 21.5222C60.0511 21.744 57.2625 22.8532 55.4245 25.5467C54.759 26.4657 54.6639 27.0361 54.6639 29.2544C54.6639 31.6311 54.759 31.9796 55.6146 33.2155C56.9139 35.0535 58.9737 36.0675 61.7623 36.2894C64.4876 36.4795 66.6108 35.814 68.7656 34.1028L70.3184 32.8669L70.4135 34.388L70.5085 35.8774H72.093H73.6774L73.7725 26.846C73.8676 16.9273 73.6774 15.2161 72.2831 13.283C70.4768 10.8113 65.2481 9.70215 60.7483 10.843ZM69.7163 26.9727V29.6346L68.1318 31.0607C66.2305 32.7719 64.8045 33.3106 62.6813 33.1204C60.78 32.9303 59.5758 32.0747 58.9737 30.5536C58.3716 28.9058 58.7518 27.258 60.0828 25.9904C61.382 24.7862 62.7764 24.4376 66.8009 24.3425L69.7163 24.2792V26.9727Z" fill="white"/>
  <path d="M112.085 10.6848C106.19 12.1742 102.895 18.3853 103.909 26.1174C104.511 30.8391 106.381 33.6911 109.93 35.3707C111.546 36.1312 112.053 36.1946 115.507 36.1946C118.581 36.1946 119.753 36.0678 121.591 35.4657C123.017 35.0221 124 34.5151 124.222 34.1348C124.633 33.4059 124.633 31.6947 124.253 31.4412C124.095 31.3461 122.827 31.663 121.465 32.1384C119.5 32.8038 118.391 32.9623 116.141 32.994C112.908 32.994 111.324 32.3919 109.866 30.649C108.947 29.5715 108.06 26.973 108.06 25.3886V24.3428L116.236 24.2478C122.891 24.1844 124.538 24.0576 125.014 23.6774C125.489 23.2971 125.552 22.8534 125.394 20.6669C125.109 16.0403 123.239 12.903 119.848 11.2869C118.169 10.5263 114.081 10.1778 112.085 10.6848ZM117.472 14.0122C119.69 14.9311 120.862 16.6424 121.243 19.5261L121.465 21.1422H114.746H108.06V20.3817C108.06 19.2726 108.916 17.0543 109.803 15.8818C111.419 13.7903 114.873 12.9347 117.472 14.0122Z" fill="white"/>
  <path d="M140.447 10.9065C139.876 11.16 138.704 12.1741 137.848 13.1247L136.264 14.8676V13.1564C136.264 12.2057 136.105 11.2868 135.883 11.0649C135.44 10.6213 133.475 10.5579 132.841 10.9382C132.556 11.16 132.461 13.8853 132.524 23.5505L132.619 35.8776H134.521H136.422L136.517 27.7018L136.581 19.4943L137.5 18.195C139.781 14.8993 141.461 13.8853 143.679 14.4557C146.056 15.0578 146.087 15.0261 146.087 12.9346C146.087 11.1283 146.056 11.0649 145.105 10.7164C143.679 10.2093 141.651 10.3044 140.447 10.9065Z" fill="white"/>
  <path d="M185.762 10.9381C180.66 12.7761 179.297 18.8287 183.227 22.2828C183.829 22.8215 185.477 23.7405 186.839 24.3109C190.769 25.9271 191.688 26.4658 192.353 27.5749C193.114 28.8108 193.146 29.7298 192.512 30.9656C191.181 33.5325 186.206 33.8177 182.371 31.5677C180.913 30.7121 180.311 30.9339 180.311 32.3917C180.311 34.0395 180.723 34.5782 182.593 35.4338C184.051 36.0676 184.748 36.1944 187.758 36.1627C191.688 36.1627 192.829 35.8141 194.888 33.9444C197.075 31.948 197.677 28.1453 196.156 25.6419C195.3 24.2158 193.779 23.2335 190.293 21.7441C186.332 20.0646 184.97 18.8921 184.97 17.0541C184.97 13.7267 189.406 12.4592 193.684 14.5823C194.92 15.1844 195.395 15.3112 195.586 15.026C195.934 14.4873 195.902 12.9662 195.522 12.3007C194.667 10.6846 188.772 9.86065 185.762 10.9381Z" fill="white"/>
  <path d="M78.4944 10.9065C78.3677 11.0016 78.2726 11.3502 78.2726 11.6354C78.2726 12.6811 86.5435 35.2438 87.0505 35.6241C87.6209 36.0677 91.1701 36.1945 91.8039 35.7825C91.994 35.6558 94.0855 30.1419 96.4622 23.5505C99.7895 14.2656 100.709 11.4453 100.423 11.1284C99.9797 10.558 97.1593 10.5263 96.7474 11.065C96.5889 11.2868 94.9728 15.8184 93.1665 21.1421C91.3919 26.4659 89.8074 30.9975 89.6807 31.2193C89.5539 31.4728 88.0012 27.3215 86.0364 21.5541C84.1668 16.0085 82.3922 11.2868 82.1387 11.065C81.6316 10.653 78.843 10.5263 78.4944 10.9065Z" fill="white"/>
  <path d="M170.234 10.9382C169.949 11.16 169.854 13.8853 169.917 23.5505L170.013 35.8776L171.248 35.9726C171.946 36.036 172.833 36.0043 173.245 35.9093L173.974 35.7191V23.5822C173.974 14.5508 173.879 11.3502 173.593 11.0649C173.181 10.653 170.868 10.5579 170.234 10.9382Z" fill="white"/>
  <defs>
    <linearGradient id="paint0_linear_107_7715" x1="88.5505" y1="0.845861" x2="-8.95454" y2="18.7549" gradientUnits="userSpaceOnUse">
      <stop stop-color="#0052FE"/>
      <stop offset="0.958333" stop-color="#CBDCFF"/>
    </linearGradient>
  </defs>
</svg>