<svg xmlns="http://www.w3.org/2000/svg" width="57" height="57" viewBox="0 0 57 57" fill="none">
  <g clip-path="url(#clip0_107_7502)">
    <path d="M10.4701 1.47266H46.7648C52.4052 1.47266 57.0201 6.08754 57.0201 11.728V46.7924C57.0201 52.4329 52.4052 57.0478 46.7648 57.0478H10.2753C4.6349 57.0478 0.0200195 52.4329 0.0200195 46.7924V11.9227C0.0200195 6.16336 4.71072 1.47266 10.4701 1.47266Z" fill="#CBDCFF"/>
    <path d="M10.945 3.84772H46.2897C50.9043 3.84772 54.645 7.58845 54.645 12.203V46.3174C54.645 50.9319 50.9041 54.6727 46.2897 54.6727H10.7503C6.13576 54.6727 2.39502 50.9318 2.39502 46.3174V12.3977C2.39502 7.64768 6.19498 3.84772 10.945 3.84772Z" fill="#0052FE"/>
    <path d="M42.4604 42.6349L42.4471 23.0003C42.4471 22.8837 42.4047 22.7712 42.3279 22.6835L35.1702 14.5254C35.079 14.4214 34.9474 14.3619 34.8091 14.3619H21.6106C21.3453 14.3619 21.1304 14.577 21.1304 14.8421V42.1577C21.1304 42.423 21.3455 42.638 21.6106 42.638H41.4865C41.4972 42.638 41.5071 42.6355 41.5177 42.6349H42.4604ZM34.8762 15.9414C34.8762 15.8391 35.003 15.7913 35.0704 15.8683L40.8633 22.4707C40.9262 22.5424 40.8753 22.6547 40.7799 22.6547H35.3564C35.0911 22.6547 34.8762 22.4396 34.8762 22.1744V15.9414ZM22.5712 41.6775C22.3059 41.6775 22.0909 41.4624 22.0909 41.1972V15.8028C22.0909 15.5375 22.306 15.3225 22.5712 15.3225H33.4352C33.7005 15.3225 33.9155 15.5376 33.9155 15.8028V23.135C33.9155 23.4003 34.1306 23.6152 34.3958 23.6152H41.0061C41.2714 23.6152 41.4864 23.8303 41.4864 24.0955L41.499 41.6787C41.4947 41.6786 41.4907 41.6775 41.4864 41.6775H22.5712Z" fill="#E2E2E2"/>
    <path d="M30.0291 22.8214C28.938 22.055 26.3949 20.2688 25.5555 19.6792C25.4398 19.598 25.2811 19.6811 25.2811 19.8224V21.2364H14.714C14.6176 21.2364 14.5394 21.3145 14.5394 21.4109V24.88C14.5394 24.9765 14.6176 25.0546 14.714 25.0546H25.2811V26.5311C25.4065 26.5963 25.4305 26.6089 25.556 26.674L30.0284 23.5326C30.275 23.3594 30.2755 22.9945 30.0291 22.8214Z" fill="#CBDCFF"/>
  </g>
  <defs>
    <clipPath id="clip0_107_7502">
      <rect width="57" height="57" fill="white"/>
    </clipPath>
  </defs>
</svg>